<?xml version="1.0" encoding="utf-8"?>
<!-- Generator: Adobe Illustrator 21.0.0, SVG Export Plug-In . SVG Version: 6.00 Build 0)  -->
<svg version="1.1" id="Layer_1" xmlns="http://www.w3.org/2000/svg" xmlns:xlink="http://www.w3.org/1999/xlink" x="0px" y="0px"
	 viewBox="0 0 437.9 63.5" style="enable-background:new 0 0 437.9 63.5;" xml:space="preserve">
<style type="text/css">
	.st0{fill:#FFFFFF;}
	.st1{fill:#FF7300;}
	.st2{enable-background:new    ;}
</style>
<title>Logo KD Baru</title>
<g id="Layer_2">
	<g id="Layer_1-2">
		<path class="st0" d="M250.8,4.7c-2.6-0.3-5.3-0.5-7.9-0.4c0,0-0.8,0-0.8,1.1v15.4c0.1,1.1-0.6,2-1.7,2.1c-0.2,0-0.3,0-0.5,0H230
			c-8.9,0-17.2,8.2-17.2,18.1c0,10.5,9.5,18.4,17.9,18.4h1.9c3.3-0.1,6.6-0.9,9.5-2.5c0.1,0.4,0.2,0.7,0.3,1
			c0.2,0.5,0.7,0.9,1.2,0.8h8.4c0.3,0,0.4-0.3,0.1-0.8c-0.7-0.9-1-2.1-0.9-3.2V5.5C251.4,5.1,251.1,4.8,250.8,4.7L250.8,4.7z
			 M232,51.4h-0.9c-3.9,0-10-3.8-10-10.4c0-6,4.4-10.2,8.9-10.2h8.9c1.3,0.1,2.5-0.5,3.2-1.6V43C241.5,50.1,236.4,51.4,232,51.4z"/>
		<circle class="st0" cx="362.9" cy="56.3" r="2.4"/>
		<path class="st0" d="M382.7,48.9L382.7,48.9c0-5.7,4.6-10.3,10.3-10.3c0.1,0,0.1,0,0.2,0c5.6-0.2,10.3,4.2,10.4,9.8
			c0,0.1,0,0.2,0,0.3v0.1c0,5.7-4.7,10.3-10.3,10.2c-0.1,0-0.1,0-0.2,0c-5.6,0.1-10.3-4.3-10.4-9.9C382.7,49.1,382.7,49,382.7,48.9z
			 M399.1,48.9L399.1,48.9c0.1-3.4-2.5-6.2-5.8-6.4c-0.1,0-0.1,0-0.2,0c-3.6,0-5.9,2.8-5.9,6.2v0.1c-0.1,3.4,2.5,6.2,5.9,6.3h0.1
			C396.9,55.2,399.1,52.3,399.1,48.9z M417.6,48.9L417.6,48.9c0-6.6,4.4-10.3,9.1-10.3c2.7,0,5.2,1.3,6.7,3.5V31.5h4.5v27.1h-4.5
			v-3.3c-1.5,2.3-4,3.7-6.7,3.7C422.1,59,417.6,55.4,417.6,48.9z M433.4,48.9L433.4,48.9c0-3.9-2.7-6.4-5.7-6.4s-5.6,2.4-5.6,6.3
			v0.1c0,3.8,2.6,6.3,5.6,6.3S433.4,52.6,433.4,48.9z"/>
		<circle class="st0" cx="406.3" cy="56.3" r="2.4"/>
		<path class="st0" d="M410.7,39h4.5v19.6h-4.5V39z"/>
		<circle class="st0" cx="413" cy="33.8" r="2.4"/>
		<path class="st0" d="M381,52.7c-1.3,1.5-3.1,2.3-5.1,2.5c-3.5,0-5.9-2.9-5.9-6.3v-0.1c0-3.4,2.4-6.2,5.6-6.2
			c1.9-0.1,3.7,0.7,4.9,2.2l0.4,0.4c0.5-1.4,1.1-2.7,1.9-3.9c-1.9-1.9-4.5-2.9-7.1-2.7c-5.6,0-10.2,4.5-10.2,10.1c0,0.1,0,0.1,0,0.2
			V49c-0.1,5.5,4.3,10.1,9.8,10.1c0.1,0,0.2,0,0.3,0c2.7,0.1,5.3-0.9,7.2-2.8C382,55.2,381.4,54,381,52.7z M171.3,55.1
			c-0.7-1-1.2-2.1-1.5-3.3c-0.2-0.7-0.8-0.9-1.5-0.9h-4.6c-4.9,0-5.3-6-5.3-7.8V26.4h9.9c0.4,0,0.7-0.3,0.8-0.7v-6.6
			c0-0.6-0.5-0.6-0.5-0.6h-10.2V8c0-0.3-0.2-0.6-0.5-0.6l0,0c-2.2-0.5-4.5-0.8-6.8-0.8c-0.2,0-0.6,0.2-0.6,0.9v11h-7.6
			c-0.2,0-0.3,0.2-0.3,0.4c0,0.1,0.1,0.2,0.2,0.3c1.3,0.8,2.3,1.8,3.2,3c1.1,1.6,1.1,2.5,1.5,3.6c0.1,0.3,0.5,0.6,0.8,0.6h2.1v16.7
			c0,9.4,5.3,15.7,13.2,15.7h4.4l5.2-0.1c0.5,0,0.8-0.4,0.4-0.7C172.7,57.1,171.9,56.2,171.3,55.1z M109.4,15h-7.7
			c-0.7,0-1.3,0.3-1.8,0.7L84.5,31c0,0-0.5,0.5-0.8,0.5s-0.3-0.4-0.3-0.8v-24c0-1.2-0.3-1.8-1-1.9c-2.5-0.4-5.1-0.6-7.6-0.7
			c-0.2,0-0.6,0.2-0.6,0.8v53c0,0.8,0.5,0.9,0.8,0.9h8c0.3,0,0.5-0.2,0.5-0.5V45.7c-0.1-0.6,0.1-1.2,0.5-1.7l3.8-4.1
			c-0.2,0.6,0,1.2,0.4,1.7c3.3,4.2,8.4,13.7,10.5,16.3c0.4,0.5,1,0.8,1.7,0.8h9.7c0.4,0,0.3-0.5,0.2-0.6
			c-3.1-4.2-12.1-18.6-14.2-21.5c-0.6-0.8-1-1.6-1.2-2.6c0-0.7,0.2-1.3,0.6-1.8c0.5-0.7,14.3-15.3,14.3-15.3
			c0.4-0.3,0.6-0.7,0.7-1.2C110.3,15.2,110,15,109.4,15z M39.7,43.8c-0.1,4.1-4.4,4.1-4.4,4.1h-5.5L21,56.2l1.6-8.3h-3.8
			c-2.2,0.1-4.1-1.5-4.4-3.7V18.5c0-1.9,1.5-3.5,3.4-3.5h0.1h17.6c2.2-0.1,4,1.6,4.2,3.8C39.7,18.8,39.7,40.6,39.7,43.8 M29.6,0H0
			v63.5h29.4c0,0,30,1.2,30.1-31.7C59.5-1.8,33.8,0,29.6,0 M290.5,31.4v-0.1c0-10.1-8.3-12.3-15.3-12.3c-4.2,0-11.5,1.4-14.3,5.9
			c0,0-0.2,0.6,0.2,0.8s4.7,2.7,4.7,2.7c0.1,0,0.2,0.1,0.3,0.1c0.1,0,0.2,0,0.3-0.1c0.6-0.7,2.6-2,8.7-2.1c7.1,0,7.5,2.8,7.5,5v0.1
			c0,1.5-0.3,1.9-1.6,1.9h-10.3c-8.2,0-14.1,4.9-14.1,12.8c0,6.2,5.8,13.3,15.1,13.3h0.9c3.5,0.1,7-0.9,10-2.8
			c0,1.1,0.5,2.2,1.5,2.2h6.8c0.7,0,0.4-0.5,0.4-0.5c-0.6-0.8-0.9-1.9-0.8-2.9L290.5,31.4L290.5,31.4z M282.4,43.4
			c0,6.4-3.8,8.8-9,8.8h-0.6c-3.8,0-8.1-2.1-8.1-5.9c0-3.5,3-5.4,5.9-5.4h9.4c1.3,0,2-0.3,2.4-0.9C282.4,40.5,282.4,42.5,282.4,43.4
			L282.4,43.4z M207.7,31.4v-0.1c0-10.1-8.3-12.2-15.3-12.2c-4.2,0-11.6,1.4-14.3,5.9c0,0-0.2,0.6,0.2,0.8s4.7,2.7,4.7,2.7
			c0.1,0,0.2,0.1,0.3,0.1s0.2,0,0.3-0.1c0.6-0.7,2.6-2,8.7-2.1c7.1,0,7.5,2.8,7.5,5v0.1c0,1.5-0.3,1.9-1.6,1.9h-10.3
			c-8.2,0-14.1,4.9-14.1,12.8c0,6.2,5.8,13.3,15.1,13.3h0.9c3.5,0.1,7-0.9,10.1-2.8c0,1.1,0.5,2.2,1.5,2.2h6.8
			c0.7,0,0.4-0.5,0.4-0.5c-0.6-0.8-0.9-1.9-0.8-2.9L207.7,31.4L207.7,31.4z M199.6,43.4c0,6.4-3.8,8.8-9,8.8H190
			c-3.8,0-8.1-2.1-8.1-5.9c0-3.5,3.1-5.4,5.9-5.4h9.4c1.3,0,2-0.3,2.4-0.9C199.7,40.5,199.6,42.5,199.6,43.4L199.6,43.4z"/>
		<path class="st0" d="M143.2,31.4v-0.1c0-10.1-8.3-12.2-15.2-12.2c-4.2,0-11.6,1.4-14.3,5.9c0,0-0.2,0.6,0.2,0.8s4.7,2.7,4.7,2.7
			c0.1,0,0.2,0.1,0.3,0.1c0.1,0,0.2,0,0.3-0.1c0.6-0.7,2.6-2,8.7-2.1c7.1,0,7.5,2.8,7.5,5v0.1c0,1.5-0.3,1.9-1.6,1.9h-10.3
			c-8.2,0-14.2,4.9-14.2,12.8c0,6.2,5.8,13.3,15.1,13.3h0.9c3.5,0.1,7-0.9,10.1-2.8c0,1.1,0.5,2.2,1.5,2.2h6.8
			c0.7,0,0.4-0.5,0.4-0.5c-0.6-0.8-0.9-1.9-0.8-2.9L143.2,31.4L143.2,31.4z M135.2,43.4c0,6.4-3.8,8.8-9,8.8h-0.6
			c-3.8,0-8.1-2.1-8.1-5.9c0-3.5,3.1-5.4,5.9-5.4h9.4c1.3,0,2-0.3,2.4-0.9C135.2,40.5,135.2,42.5,135.2,43.4L135.2,43.4z M355,31.4
			v-0.1c0-10.1-8.3-12.2-15.3-12.2c-4.2,0-11.5,1.4-14.3,5.9c0,0-0.2,0.6,0.2,0.8s4.7,2.7,4.7,2.7c0.1,0,0.2,0.1,0.3,0.1
			c0.1,0,0.2,0,0.3-0.1c0.6-0.7,2.6-2,8.7-2.1c7.1,0,7.5,2.8,7.5,5v0.1c0,1.5-0.3,1.9-1.6,1.9h-10.3C327,33.2,321,38.1,321,46
			c0,6.2,5.8,13.3,15.1,13.3h0.9c3.5,0.1,7-0.9,10-2.8c0,1.1,0.5,2.2,1.5,2.2h6.8c0.7,0,0.4-0.5,0.4-0.5c-0.6-0.8-0.9-1.9-0.8-2.9
			L355,31.4L355,31.4z M346.9,43.4c0,6.4-3.8,8.8-9,8.8h-0.6c-3.8,0-8.1-2.1-8.1-5.9c0-3.5,3-5.4,5.9-5.4h9.4c1.3,0,2-0.3,2.4-0.9
			C347,40.5,346.9,42.5,346.9,43.4L346.9,43.4z M318.8,55.1c-0.7-1-1.2-2.1-1.5-3.3c-0.2-0.7-0.8-0.9-1.5-0.9h-4.6
			c-4.9,0-5.3-6-5.3-7.8V26.4h10c0.4,0,0.7-0.3,0.8-0.7v-6.6c0-0.6-0.5-0.6-0.5-0.6H306V8c0-0.3-0.2-0.6-0.5-0.6l0,0
			c-2.3-0.5-4.5-0.8-6.9-0.8c-0.2,0-0.6,0.2-0.6,0.9v11h-7.6c-0.2,0-0.3,0.2-0.3,0.4c0,0.1,0.1,0.2,0.2,0.3c1.3,0.8,2.3,1.8,3.2,3
			c1.1,1.6,1.1,2.5,1.5,3.6c0.1,0.3,0.5,0.6,0.8,0.6h2.1v16.7c0,9.4,5.3,15.7,13.2,15.7h4.4l5.2-0.1c0.5,0,0.8-0.4,0.4-0.7
			C320.2,57.1,319.4,56.2,318.8,55.1L318.8,55.1z"/>
	</g>
</g>
<rect x="365" y="0.2" class="st1" width="72.9" height="21.1"/>
<g class="st2">
	<path class="st0" d="M382.5,5.1c0.7,0,1.4,0.1,2.1,0.4c0.6,0.2,1.2,0.6,1.6,1.1c0.5,0.5,0.8,1.1,1.1,1.8c0.3,0.7,0.4,1.5,0.4,2.5
		c0,0.8-0.1,1.6-0.3,2.3s-0.5,1.3-1,1.8c-0.4,0.5-1,0.9-1.6,1.2c-0.6,0.3-1.4,0.4-2.3,0.4h-4.9V5.1H382.5z M382.5,14.4
		c0.4,0,0.7-0.1,1.1-0.2c0.4-0.1,0.6-0.3,0.9-0.6s0.5-0.6,0.6-1.1c0.2-0.4,0.2-1,0.2-1.6s-0.1-1.1-0.2-1.6c-0.1-0.5-0.3-0.9-0.6-1.2
		s-0.6-0.6-1-0.8C383,7.1,382.5,7,381.8,7H380v7.2h2.4V14.4z"/>
	<path class="st0" d="M398,5.1v2.1h-6v2.4h5.5v2H392v2.8h6.2v2.1h-8.7V5.1H398z"/>
	<path class="st0" d="M403.5,5.1l2.7,7.9l0,0l2.5-7.9h3.5v11.4h-2.4V8.4l0,0l-2.8,8.1h-1.9l-2.8-8l0,0v8h-2.4V5.1H403.5z"/>
	<path class="st0" d="M414.2,8.4c0.3-0.7,0.6-1.4,1.1-1.9s1.1-1,1.8-1.3c0.7-0.3,1.5-0.5,2.4-0.5c0.9,0,1.7,0.2,2.4,0.5
		s1.3,0.7,1.8,1.3s0.8,1.2,1.1,1.9c0.3,0.7,0.4,1.5,0.4,2.4c0,0.8-0.1,1.6-0.4,2.3s-0.6,1.3-1.1,1.9s-1.1,1-1.8,1.3
		c-0.7,0.3-1.5,0.5-2.4,0.5c-0.9,0-1.7-0.2-2.4-0.5c-0.7-0.3-1.3-0.7-1.8-1.3s-0.8-1.2-1.1-1.9c-0.3-0.7-0.4-1.5-0.4-2.3
		C413.9,10,414,9.2,414.2,8.4z M416.5,12.2c0.1,0.5,0.3,0.9,0.5,1.2c0.2,0.4,0.6,0.7,1,0.9c0.4,0.2,0.9,0.3,1.4,0.3s1-0.1,1.4-0.3
		c0.4-0.2,0.7-0.5,1-0.9c0.2-0.4,0.4-0.8,0.5-1.2c0.1-0.5,0.2-0.9,0.2-1.4s-0.1-1-0.2-1.5c-0.1-0.5-0.3-0.9-0.5-1.3
		c-0.2-0.4-0.6-0.7-1-0.9c-0.4-0.2-0.9-0.3-1.4-0.3s-1,0.1-1.4,0.3c-0.4,0.2-0.7,0.5-1,0.9c-0.2,0.4-0.4,0.8-0.5,1.3
		c-0.1,0.5-0.2,1-0.2,1.5C416.5,11.3,416.5,11.8,416.5,12.2z"/>
</g>
</svg>
