<svg id="Layer_1" data-name="Layer 1" xmlns="http://www.w3.org/2000/svg" viewBox="0 0 231 44"><defs><style>.cls-1{fill:#809a9c;}.cls-2{fill:#004a73;}</style></defs><title>new-logo-blue</title><g id="Layer_2" data-name="Layer 2"><g id="Layer_1-2" data-name="Layer 1-2"><circle class="cls-1" cx="193.92" cy="34.21" r="1.18"/><path class="cls-1" d="M203.7,30.56v0a5.08,5.08,0,0,1,5.08-5.09h.11a5,5,0,0,1,5.17,4.87q0,.09,0,.18v0a5.09,5.09,0,0,1-5.12,5.06h-.09a5,5,0,0,1-5.15-4.9S203.7,30.6,203.7,30.56Zm8.13,0v0A3,3,0,0,0,209,27.4h-.09a2.92,2.92,0,0,0-2.92,3.09v0a3,3,0,0,0,2.92,3.13h.05A2.92,2.92,0,0,0,211.83,30.56Z"/><path class="cls-1" d="M221,30.52v0c0-3.24,2.19-5,4.51-5a4,4,0,0,1,3.32,1.71V21.92H231V35.36h-2.23V33.74a3.91,3.91,0,0,1-3.32,1.82C223.18,35.56,221,33.76,221,30.52Zm7.86,0v0A2.92,2.92,0,0,0,226,27.37a2.87,2.87,0,0,0-2.8,3.11v0a2.82,2.82,0,1,0,5.61,0Z"/><circle class="cls-1" cx="215.36" cy="34.21" r="1.18"/><path class="cls-1" d="M217.57,25.64h2.23v9.72h-2.23Z"/><circle class="cls-1" cx="218.68" cy="23.08" r="1.18"/><path class="cls-1" d="M202.86,32.44a3.63,3.63,0,0,1-2.5,1.22,3,3,0,0,1-2.91-3.13v0a2.92,2.92,0,0,1,2.8-3.09,3,3,0,0,1,2.41,1.09l.2.22a9.87,9.87,0,0,1,.92-1.92,4.59,4.59,0,0,0-3.51-1.34,5,5,0,0,0-5,5s0,.07,0,.1v0a5,5,0,0,0,4.88,5h.14a4.83,4.83,0,0,0,3.57-1.41A5,5,0,0,1,202.86,32.44Z"/><path class="cls-2" d="M98.11,33.55a7.07,7.07,0,0,1-.84-1.9c0-.14-.13-.17-.26-.16H94.32c-2.44,0-2.63-3-2.63-3.88V19.36h5.13c.11,0,.18,0,.18-.13V15.46H91.68V9.94a.31.31,0,0,0-.23-.31c-.76-.14-3.69-.13-3.69-.13v5.94H83.92c-.14,0-.12.12-.06.17a7.7,7.7,0,0,1,1.71,1.66,6.74,6.74,0,0,1,.94,1.89.31.31,0,0,0,.15.19h1.13v4h0v4.31c0,4.66,2.63,7.79,6.54,7.79h2.2l3.17,0A8.12,8.12,0,0,1,98.11,33.55Z"/><path class="cls-2" d="M67.17,15.84H62a.22.22,0,0,0-.17.06L53.93,24h0c-.11.11-.17.07-.17-.14V8.76a.27.27,0,0,0-.23-.31c-.76-.14-3.69-.13-3.69-.13v27h3.72c.16,0,.23-.07.23-.26V29.75l2.09-2.17c1.59,1.94,4.91,6.29,6,7.67a.19.19,0,0,0,.15.09h4.85c-1.35-1.73-6.16-8-7.29-9.49a2.47,2.47,0,0,1-.64-1.11,1,1,0,0,1,.24-.6Z"/><path class="cls-2" d="M84.15,21.83v-.05c0-5-4.11-6.07-7.56-6.07-2.09,0-6.51,0-8,2.94l3.3,1.7.16,0a.2.2,0,0,0,.14-.05c.34-.37,1.34-.73,4.35-.73,3.65,0,3.65,1.1,3.65,2.16v.06c0,.75-.14.92-.81.92h-5.1a6.64,6.64,0,0,0-7,6.73c0,3.07,2.4,6.18,7,6.18h1.91a7.62,7.62,0,0,0,4-1V35c0,.27.09.36.33.36h3.58V21.83Zm-4,5.94c0,3.16-1.63,4-3.91,4H74.34a4.11,4.11,0,0,1-2.24-.63,2.33,2.33,0,0,1-.85-1.9c0-1.92,1.67-2.54,3.09-2.54h3.86a2.53,2.53,0,0,0,2-1.22c0,.45,0,1.87,0,2.34Z"/><path class="cls-2" d="M116.44,21.83v-.05c0-5-4.11-6.07-7.56-6.07-2.09,0-6.51,0-8,2.94l3.3,1.7.16,0a.2.2,0,0,0,.14-.05c.34-.37,1.34-.73,4.35-.73,3.65,0,3.65,1.1,3.65,2.16v.06c0,.75-.14.92-.81.92h-5.09a6.64,6.64,0,0,0-7,6.73c0,3.07,2.4,6.18,7,6.18h1.91a7.62,7.62,0,0,0,4-1V35c0,.27.09.36.33.36h3.58V21.83Zm-4,5.94c0,3.16-1.63,4-3.91,4h-1.91a4.11,4.11,0,0,1-2.23-.62,2.33,2.33,0,0,1-.87-1.91c0-1.92,1.67-2.54,3.09-2.54h3.86a2.53,2.53,0,0,0,2-1.22c0,.45,0,1.87,0,2.34Z"/><path class="cls-2" d="M138,8.54c-.77-.14-3.71-.13-3.71-.13v6.25c-.07.72-.26,1.06-.76,1.06h-6.07c-4.4,0-8.34,4.91-8.34,9.83,0,5.2,3.78,10.12,9.68,10.12h1.07a9.46,9.46,0,0,0,4.45-1.22v.63a.3.3,0,0,0,.3.31h3.61V13.94h0V11.27h0V8.85A.3.3,0,0,0,138,8.54Zm-8.69,23.21h-.71c-2.62,0-5.38-2.91-5.38-6.17,0-3,2-5.94,4.24-5.94h4.95a2.33,2.33,0,0,0,1.91-1.18v9.15C134.09,31.11,131.56,31.75,129.36,31.75Z"/><path class="cls-2" d="M171.62,33.55a7.07,7.07,0,0,1-.84-1.9c0-.14-.13-.17-.25-.16h-2.69c-2.44,0-2.63-3-2.63-3.88V19.36h5.13c.11,0,.18,0,.18-.13V15.46H165.2V9.94a.27.27,0,0,0-.23-.31c-.76-.14-3.69-.13-3.69-.13v5.94h-3.86c-.14,0-.12.12-.06.17a7.7,7.7,0,0,1,1.71,1.66,6.75,6.75,0,0,1,.94,1.89.31.31,0,0,0,.15.19h1.14v4h0v4.31c0,4.66,2.63,7.79,6.54,7.79H170l3.17,0A8.12,8.12,0,0,1,171.62,33.55Z"/><path class="cls-2" d="M157.67,21.83v-.05c0-5-4.11-6.07-7.56-6.07-2.09,0-6.51,0-8,2.94l3.32,1.68.16,0a.2.2,0,0,0,.14-.05c.34-.37,1.34-.73,4.35-.73,3.65,0,3.65,1.1,3.65,2.16v.06c0,.75-.14.92-.81.92h-5.1a6.64,6.64,0,0,0-7,6.73c0,3.07,2.4,6.18,7,6.18h1.91a7.62,7.62,0,0,0,4-1V35c0,.27.09.36.33.36h3.58V21.83Zm-4,5.94c0,3.16-1.63,4-3.91,4h-1.91a4.11,4.11,0,0,1-2.24-.63,2.33,2.33,0,0,1-.86-1.9c0-1.92,1.67-2.54,3.09-2.54h3.86a2.53,2.53,0,0,0,2-1.22c0,.45,0,1.87,0,2.34Z"/><path class="cls-2" d="M190,21.83h0v-.05c0-5-4.11-6.07-7.56-6.07-2.09,0-6.51,0-8,2.94l3.3,1.7.16,0a.2.2,0,0,0,.14-.05c.34-.37,1.34-.73,4.35-.73,3.64,0,3.64,1.08,3.64,2.16v.06c0,.75-.14.92-.81.92h-5.1a6.64,6.64,0,0,0-7,6.73c0,3.07,2.4,6.18,7,6.18H182a7.62,7.62,0,0,0,4-1V35c0,.27.09.36.33.36h3.58V22.21C190,22.09,190,22,190,21.83Zm-4,5.94c0,3.16-1.63,4-3.91,4h-1.91a4.11,4.11,0,0,1-2.24-.63,2.33,2.33,0,0,1-.86-1.9c0-1.92,1.67-2.54,3.09-2.54H184a2.53,2.53,0,0,0,2-1.22c0,.45,0,1.87,0,2.34Z"/><path class="cls-2" d="M27.5,30.35c-.06,2.84-3.08,2.84-3.08,2.84H20.6L14.48,39l1.14-5.77H13a2.88,2.88,0,0,1-3-2.54V12.83a2.39,2.39,0,0,1,2.33-2.43H24.59A2.8,2.8,0,0,1,27.48,13s0,15.16,0,17.38M20.54,0H0V44H20.39s20.83.82,20.84-22c0-23.26-17.81-22-20.68-22"/></g></g></svg>