<svg xmlns="http://www.w3.org/2000/svg" viewBox="0 0 466.87 88.91"><defs><style>.cls-1{fill:#86a6b2;}.cls-2{fill:#004a73;}</style></defs><title>Logo Baru KD_warna asli</title><g id="Layer_2" data-name="Layer 2"><g id="Layer_1-2" data-name="Layer 1"><circle class="cls-1" cx="391.92" cy="69.12" r="2.38"/><path class="cls-1" d="M411.69,61.75v-.07A10.27,10.27,0,0,1,422.18,51.4,10.15,10.15,0,0,1,432.63,61.6v.07A10.29,10.29,0,0,1,422.11,71.9,10.16,10.16,0,0,1,411.69,61.75Zm16.44,0v-.07a6.07,6.07,0,0,0-6-6.32c-3.61,0-5.91,2.83-5.91,6.25v.07a6.11,6.11,0,0,0,6,6.32C425.86,68,428.13,65.13,428.13,61.75Z"/><path class="cls-1" d="M446.56,61.67V61.6c0-6.55,4.43-10.19,9.11-10.19a8.18,8.18,0,0,1,6.7,3.46V44.3h4.5V71.45h-4.5V68.18a7.91,7.91,0,0,1-6.7,3.68C451.06,71.86,446.56,68.22,446.56,61.67Zm15.88,0V61.6c0-3.79-2.68-6.29-5.69-6.29s-5.65,2.38-5.65,6.29v.07c0,3.79,2.57,6.29,5.65,6.29S462.44,65.43,462.44,61.67Z"/><circle class="cls-1" cx="435.27" cy="69.12" r="2.38"/><path class="cls-1" d="M439.73,51.81h4.5V71.45h-4.5Z"/><circle class="cls-1" cx="441.98" cy="46.64" r="2.38"/><path class="cls-1" d="M410,65.54A7.34,7.34,0,0,1,404.94,68c-3.46,0-5.88-2.86-5.88-6.32V61.6c0-3.42,2.38-6.25,5.65-6.25a6,6,0,0,1,4.88,2.21L410,58a19.94,19.94,0,0,1,1.86-3.87,9.27,9.27,0,0,0-7.1-2.7,10.13,10.13,0,0,0-10.19,10.27v.07A10,10,0,0,0,404.72,71.9a9.77,9.77,0,0,0,7.22-2.84A10.1,10.1,0,0,1,410,65.54Z"/><path class="cls-2" d="M198.28,67.8a14.29,14.29,0,0,1-1.7-3.83c-.06-.28-.27-.34-.52-.33s-5.44,0-5.44,0c-4.93,0-5.32-6-5.32-7.84V39.12h10.36c.22,0,.37-.07.37-.26V31.23H185.3V23.39c0-2,0-3.19,0-3.3s-.05-.55-.46-.63c-1.54-.28-7.46-.26-7.46-.26v12H169.6c-.28,0-.24.25-.12.34a15.56,15.56,0,0,1,3.45,3.36,13.62,13.62,0,0,1,1.9,3.82.63.63,0,0,0,.3.38h2.28v8h0v8.7c0,9.41,5.31,15.74,13.22,15.74h4.44l6.41-.06A16.41,16.41,0,0,1,198.28,67.8Z"/><path class="cls-2" d="M135.76,32l-10.44,0a.45.45,0,0,0-.34.13L109,48.58h0c-.22.22-.34.14-.34-.29,0-14.37,0-30.16,0-30.58,0-.26-.05-.55-.46-.63-1.54-.28-7.46-.26-7.46-.26V71.44h7.52c.33,0,.46-.15.46-.52,0-.08,0-4.51,0-10.8l4.22-4.38c3.22,3.93,9.92,12.7,12.06,15.5a.39.39,0,0,0,.31.18h9.8c-2.73-3.5-12.45-16.19-14.73-19.18A5,5,0,0,1,119.08,50a2,2,0,0,1,.49-1.22Z"/><path class="cls-2" d="M170.08,44.11V44c0-10.14-8.31-12.27-15.28-12.27-4.23,0-13.16,0-16.08,5.95l6.66,3.43a1.28,1.28,0,0,0,.33.1.4.4,0,0,0,.28-.11c.68-.74,2.7-1.47,8.8-1.47,7.38,0,7.38,2.22,7.38,4.37v.12c0,1.51-.28,1.86-1.64,1.86h-10.3c-8.2,0-14.15,5.72-14.15,13.6,0,6.2,4.86,12.48,14.15,12.48h3.86A15.4,15.4,0,0,0,162.18,70v.8c0,.55.19.72.66.72h7.24V44.88c0-.25,0-.5,0-.77Zm-8.07,12c0,6.39-3.3,8-7.91,8h-3.86a8.3,8.3,0,0,1-4.52-1.28A4.71,4.71,0,0,1,144,59c0-3.87,3.37-5.14,6.25-5.14h7.81a5.12,5.12,0,0,0,4-2.46C162,52.3,162,55.18,162,56.13Z"/><path class="cls-2" d="M235.34,44.11V44c0-10.14-8.31-12.27-15.28-12.27-4.23,0-13.16,0-16.08,5.95l6.66,3.43a1.28,1.28,0,0,0,.33.1.4.4,0,0,0,.28-.11c.68-.74,2.7-1.47,8.8-1.47,7.38,0,7.38,2.22,7.38,4.37v.12c0,1.51-.28,1.86-1.64,1.86H215.5c-8.2,0-14.15,5.72-14.15,13.6,0,6.2,4.86,12.48,14.15,12.48h3.86A15.4,15.4,0,0,0,227.44,70v.8c0,.55.19.72.66.72h7.24V44.88c0-.25,0-.5,0-.77Zm-8.07,12c0,6.39-3.3,8-7.91,8H215.5A8.3,8.3,0,0,1,211,62.85,4.71,4.71,0,0,1,209.25,59c0-3.87,3.37-5.14,6.25-5.14h7.81a5.12,5.12,0,0,0,4-2.46C227.27,52.3,227.27,55.18,227.27,56.13Z"/><path class="cls-2" d="M279,17.26c-1.55-.28-7.49-.26-7.49-.26l0,12.62c-.15,1.46-.52,2.14-1.53,2.14H257.71c-8.9,0-16.86,9.93-16.86,19.87,0,10.5,7.63,20.45,19.57,20.45h2.17a19.12,19.12,0,0,0,9-2.46V70.9s0,.63.61.63h7.29V28.88c0-.39,0-.64,0-.72h0V22.78h0c0-2.9,0-4.76,0-4.89S279.45,17.34,279,17.26ZM261.44,64.16H260c-5.29,0-10.87-5.89-10.87-12.46,0-6,4.09-12,8.56-12h10a4.7,4.7,0,0,0,3.86-2.39V55.79C271,62.86,265.89,64.16,261.44,64.16Z"/><path class="cls-2" d="M346.86,67.8a14.29,14.29,0,0,1-1.7-3.83c-.06-.28-.27-.34-.51-.33s-5.44,0-5.44,0c-4.93,0-5.32-6-5.32-7.84V39.12h10.36c.22,0,.37-.07.37-.26V31.23H333.88V22.32c0-1.34,0-2.14,0-2.23,0-.26-.05-.55-.46-.63-1.54-.28-7.46-.26-7.46-.26v12h-7.8c-.28,0-.24.25-.12.34a15.56,15.56,0,0,1,3.45,3.36,13.63,13.63,0,0,1,1.9,3.82.62.62,0,0,0,.3.38H326v8h0v8.7c0,9.41,5.31,15.74,13.22,15.74h4.44l6.41-.06A16.41,16.41,0,0,1,346.86,67.8Z"/><path class="cls-2" d="M318.66,44.11V44c0-10.14-8.31-12.27-15.28-12.27-4.23,0-13.16,0-16.08,5.95L294,41.08a1.28,1.28,0,0,0,.33.1.4.4,0,0,0,.28-.11c.68-.74,2.7-1.47,8.8-1.47,7.38,0,7.38,2.22,7.38,4.37v.12c0,1.51-.28,1.86-1.64,1.86h-10.3c-8.2,0-14.15,5.72-14.15,13.6,0,6.2,4.86,12.48,14.15,12.48h3.86A15.4,15.4,0,0,0,310.76,70v.8c0,.55.19.72.66.72h7.24V44.88c0-.25,0-.5,0-.77Zm-8.07,12c0,6.39-3.3,8-7.91,8h-3.86a8.3,8.3,0,0,1-4.52-1.28A4.71,4.71,0,0,1,292.57,59c0-3.87,3.37-5.14,6.25-5.14h7.81a5.12,5.12,0,0,0,4-2.46C310.59,52.3,310.59,55.18,310.59,56.13Z"/><path class="cls-2" d="M383.92,44.11h0V44c0-10.14-8.31-12.27-15.28-12.27-4.23,0-13.16,0-16.08,5.95l6.67,3.43a1.28,1.28,0,0,0,.33.1.4.4,0,0,0,.28-.11c.68-.74,2.7-1.47,8.8-1.47C376,39.59,376,41.81,376,44v.12c0,1.51-.28,1.86-1.64,1.86h-10.3c-8.2,0-14.15,5.72-14.15,13.6,0,6.2,4.86,12.48,14.15,12.48h3.86A15.4,15.4,0,0,0,376,70v.8c0,.55.19.72.66.72h7.24V44.88C383.92,44.63,383.92,44.38,383.92,44.11Zm-8.07,12c0,6.39-3.3,8-7.91,8h-3.86a8.3,8.3,0,0,1-4.52-1.28A4.71,4.71,0,0,1,357.82,59c0-3.87,3.37-5.14,6.25-5.14h7.81a5.12,5.12,0,0,0,4-2.46C375.85,52.3,375.84,55.18,375.84,56.13Z"/><path class="cls-2" d="M55.57,61.32c-.13,5.74-6.22,5.74-6.22,5.74H41.64L29.26,78.71l2.3-11.65H26.29a5.83,5.83,0,0,1-6.1-5.14s0-31.79,0-36A4.82,4.82,0,0,1,25,21h24.7a5.66,5.66,0,0,1,5.83,5.26s.1,30.63,0,35.11M41.52,0H0V88.9H41.2s42.09,1.65,42.11-44.44c0-47-36-44.43-41.79-44.43"/></g></g></svg>