<svg id="Capa_1" data-name="Capa 1" xmlns="http://www.w3.org/2000/svg" viewBox="0 0 22 29.33"><defs><style>.cls-1{fill:#fff;}</style></defs><title>icon-signin</title><path class="cls-1" d="M21.39,11H19.56V8.56a8.56,8.56,0,0,0-17.11,0V11H.61a.61.61,0,0,0-.61.61V26.89a2.45,2.45,0,0,0,2.44,2.44H19.56A2.45,2.45,0,0,0,22,26.89V11.61A.61.61,0,0,0,21.39,11ZM12.83,23.77a.61.61,0,0,1-.61.68H9.78a.61.61,0,0,1-.61-.68l.39-3.47a2.42,2.42,0,0,1-1-2,2.44,2.44,0,0,1,4.89,0,2.42,2.42,0,0,1-1,2ZM15.89,11H6.11V8.56a4.89,4.89,0,1,1,9.78,0Z"/></svg>